# xmcd CD database file
#
# Track frame offsets:
#	150
#	14942
#	27646
#	43696
#	59742
#	70326
#	91876
#	107031
#	121375
#	140452
#	159026
#	171172
#	186458
#	202496
#	215974
#	229495
#
# Disc length: 3353 seconds
#
# Revision: 0
# Processed by: cddbd v1.5.2PL0 Copyright (c) Steve Scherf et al.
# Submitted via: CDex 1.70beta2
#
DISCID=050d1710
DTITLE=Roger Cicero - Männersachen
DYEAR=2006
DGENRE=Jazz
TTITLE0=Zieh die Schuh aus
TTITLE1=Kein Mann für eine Frau
TTITLE2=Kompromisse
TTITLE3=Ich atme Ein (New Version) 
TTITLE4=Schiess mich doch zum Mond (Fly me to the Moon - In other Words)
TTITLE5=Wenn sie dich fragt
TTITLE6=Fachmann in Sachen Anna
TTITLE7=Ich Idiot ließ Dich gehen
TTITLE8=Mein guter Stern auf allen Wegen
TTITLE9=Murphys Gesetz
TTITLE10=Schön dass du da bist
TTITLE11=Das ganze leben ist ein Zoo
TTITLE12=Du willst es doch auch
TTITLE13=So geil Berlin
TTITLE14=Frauen regier'n die Welt
TTITLE15=König von Deutschland (live)
EXTD=YEAR: 2006
EXTT0=
EXTT1=
EXTT2=
EXTT3=
EXTT4=
EXTT5=
EXTT6=
EXTT7=
EXTT8=
EXTT9=
EXTT10=
EXTT11=
EXTT12=
EXTT13=
EXTT14=
EXTT15=
PLAYORDER=
